<?xml version="1.0" standalone="no"?>
<!DOCTYPE svg PUBLIC "-//W3C//DTD SVG 20010904//EN"
 "http://www.w3.org/TR/2001/REC-SVG-20010904/DTD/svg10.dtd">
<svg version="1.0" xmlns="http://www.w3.org/2000/svg"
 width="1280.000000pt" height="936.000000pt" viewBox="0 0 1280.000000 936.000000"
 preserveAspectRatio="xMidYMid meet">
<metadata>
Created by potrace 1.15, written by Peter Selinger 2001-2017
</metadata>
<g transform="translate(0.000000,936.000000) scale(0.100000,-0.100000)"
fill="#000000" stroke="none">
<path d="M4875 9354 c-167 -26 -270 -57 -395 -119 -288 -145 -540 -420 -740
-811 -56 -107 -73 -154 -98 -260 -87 -368 -128 -810 -103 -1122 10 -129 37
-322 75 -537 8 -44 19 -128 26 -187 11 -90 16 -108 30 -108 14 0 18 14 23 88
13 176 28 231 234 877 128 400 337 795 525 991 95 99 205 177 307 218 68 27
87 30 181 30 116 0 176 -16 305 -81 150 -76 336 -221 668 -522 215 -194 338
-277 472 -317 46 -14 95 -18 205 -19 139 0 147 1 203 28 124 61 217 248 217
434 0 127 -34 236 -123 388 -268 464 -943 890 -1602 1012 -79 14 -352 26 -410
17z"/>
<path d="M8365 9005 c-250 -57 -468 -196 -601 -381 -54 -76 -127 -228 -151
-315 -26 -92 -25 -328 2 -419 82 -283 254 -494 500 -611 181 -87 356 -119 538
-99 418 46 721 299 843 705 24 78 27 107 27 215 0 106 -4 138 -27 213 -49 163
-158 349 -259 440 -118 107 -285 199 -433 238 -102 27 -348 35 -439 14z"/>
<path d="M11625 7428 c-2 -7 -11 -47 -20 -89 -25 -118 -187 -439 -328 -649
-147 -219 -263 -348 -497 -549 -244 -210 -428 -341 -605 -429 -136 -67 -165
-75 -249 -70 -92 6 -157 36 -257 116 -156 126 -226 242 -354 587 -148 400
-255 563 -428 656 -67 35 -145 59 -197 59 -127 0 -281 -124 -365 -295 -55
-111 -78 -219 -78 -365 0 -136 13 -215 62 -365 83 -258 197 -470 360 -675 167
-209 444 -442 627 -526 123 -57 228 -78 389 -78 193 1 319 30 510 117 280 129
505 286 725 507 223 222 361 420 515 735 158 323 241 550 280 763 15 80 16
128 10 328 l-7 234 -44 0 c-27 0 -46 -5 -49 -12z"/>
<path d="M4394 5851 c-81 -13 -178 -49 -227 -84 -185 -132 -249 -447 -147
-719 46 -123 172 -272 385 -455 l60 -52 -31 -33 c-17 -18 -84 -91 -149 -163
-249 -273 -770 -805 -1145 -1170 -353 -343 -809 -807 -1364 -1387 -109 -114
-316 -320 -459 -457 -315 -300 -526 -511 -511 -511 6 0 54 11 105 24 160 41
534 253 1619 918 184 113 407 247 495 298 1378 800 1851 1096 2060 1288 39 36
151 123 250 195 99 71 213 155 254 185 l73 56 83 -42 c108 -56 275 -167 346
-231 54 -48 56 -52 63 -113 6 -60 5 -64 -30 -115 -50 -73 -164 -179 -264 -245
-47 -31 -231 -131 -409 -223 -178 -92 -387 -200 -463 -241 -346 -185 -859
-431 -1093 -524 -100 -40 -245 -113 -313 -158 l-55 -37 74 -12 c250 -40 1078
39 1389 132 47 14 254 71 460 126 577 155 803 230 1040 348 363 181 671 467
810 755 69 142 77 177 62 278 -27 189 -101 324 -327 603 -223 274 -425 481
-680 695 -55 46 -132 114 -170 150 -266 248 -718 574 -949 684 -169 81 -456
194 -547 216 -97 23 -224 32 -295 21z"/>
<path d="M12305 1064 c-317 -23 -1096 -78 -2470 -174 -883 -61 -1944 -136
-2865 -200 -388 -27 -1031 -72 -1430 -100 -399 -28 -1042 -73 -1430 -100
-1175 -82 -2121 -148 -2795 -195 -352 -25 -765 -54 -918 -65 -154 -11 -283
-20 -289 -20 -7 0 -8 -35 -3 -102 4 -57 8 -104 10 -106 1 -1 62 2 136 8 74 5
460 32 859 60 399 28 1042 73 1430 100 388 27 1031 72 1430 100 399 28 849 59
1000 70 151 11 601 42 1000 70 399 28 1042 73 1430 100 2080 145 3480 243
4150 290 934 65 1144 81 1148 85 2 2 1 49 -3 104 l-8 101 -31 -1 c-17 -1 -175
-12 -351 -25z"/>
</g>
</svg>
