<svg xmlns="http://www.w3.org/2000/svg" width="56.021" height="80.537" viewBox="0 0 56.021 80.537">
  <path id="form-svgrepo-com" d="M50.741,15.956V12.5a1.135,1.135,0,0,1,1.134-1.134H73.2A1.135,1.135,0,0,1,74.33,12.5v3.46A1.135,1.135,0,0,1,73.2,17.089H51.875A1.135,1.135,0,0,1,50.741,15.956Zm18.336-9.92a6.563,6.563,0,0,0-13.083,0Zm21.469,13.61v53.73a7.168,7.168,0,0,1-7.16,7.16h-41.7a7.168,7.168,0,0,1-7.16-7.16V19.646a7.168,7.168,0,0,1,7.16-7.16h3.73s0,.006,0,.009v3.46a6.467,6.467,0,0,0,6.459,6.459H73.2a6.467,6.467,0,0,0,6.459-6.459V12.5s0-.006,0-.009h3.73A7.168,7.168,0,0,1,90.546,19.646ZM53.576,50.931a2.663,2.663,0,0,0-3.664.87l-2.518,4.084-1.3-1.024A2.663,2.663,0,0,0,42.8,59.046l3.647,2.872a2.663,2.663,0,0,0,3.914-.695L54.446,54.6A2.663,2.663,0,0,0,53.576,50.931Zm0-19.173a2.663,2.663,0,0,0-3.664.87l-2.518,4.084-1.3-1.024A2.663,2.663,0,0,0,42.8,39.873l3.647,2.872a2.663,2.663,0,0,0,3.914-.695l4.085-6.627A2.663,2.663,0,0,0,53.576,31.759ZM81.155,59.826a2.662,2.662,0,0,0-2.663-2.663h-17.4a2.663,2.663,0,0,0,0,5.326h17.4A2.662,2.662,0,0,0,81.155,59.826Zm0-19.173a2.662,2.662,0,0,0-2.663-2.663h-17.4a2.663,2.663,0,1,0,0,5.326h17.4A2.662,2.662,0,0,0,81.155,40.653Z" transform="translate(-34.525)" fill="#fff"/>
</svg>
